<svg width="58" height="65" viewBox="0 0 58 65" fill="none" xmlns="http://www.w3.org/2000/svg">
<path d="M28.6667 0C27.4507 0 26.256 0.320665 25.2033 0.928665L3.46333 13.4793C2.41024 14.0875 1.53578 14.9621 0.927844 16.0153C0.319904 17.0686 -9.84398e-05 18.2633 2.27155e-08 19.4793V44.5813C2.27155e-08 47.056 1.32 49.3433 3.46333 50.5813L25.2033 63.132C26.2564 63.7398 27.4508 64.0598 28.6667 64.0598C29.8825 64.0598 31.077 63.7398 32.13 63.132L53.87 50.5813C54.9231 49.9732 55.7975 49.0985 56.4055 48.0453C57.0134 46.9921 57.3334 45.7974 57.3333 44.5813V19.4793C57.3333 17.0047 56.0133 14.7173 53.87 13.4793L32.13 0.928665C31.0771 0.320548 29.8826 0.000266192 28.6667 0Z" fill="#4F433C"/>
<path d="M28.2657 2.40028C28.0003 2.44695 27.7457 2.54028 27.5123 2.67495L6.48832 14.813C6.37135 14.8806 6.27422 14.9777 6.2067 15.0948C6.13917 15.2118 6.10363 15.3445 6.10363 15.4796C6.10363 15.6147 6.13917 15.7474 6.2067 15.8645C6.27422 15.9815 6.37135 16.0787 6.48832 16.1463L27.5123 28.2836C27.8634 28.4864 28.2616 28.5931 28.667 28.5931C29.0724 28.5931 29.4706 28.4864 29.8217 28.2836L50.8457 16.1456C51.359 15.8489 51.359 15.1083 50.8457 14.8123L29.8217 2.67495C29.3514 2.40328 28.8005 2.30603 28.2657 2.40028ZM3.30366 20.675C3.12536 20.7063 2.96381 20.7995 2.84738 20.9381C2.73095 21.0767 2.66708 21.2519 2.66699 21.4329V45.709C2.66699 46.5336 3.10699 47.2956 3.82166 47.709L24.8457 59.847C24.9627 59.9144 25.0954 59.95 25.2305 59.9499C25.3656 59.9499 25.4983 59.9143 25.6153 59.8468C25.7323 59.7792 25.8295 59.6821 25.8971 59.5651C25.9647 59.4481 26.0003 59.3154 26.0003 59.1803V34.9036C26.0003 34.0783 25.5603 33.3156 24.8457 32.9036L3.82166 20.7663C3.66506 20.676 3.48169 20.6437 3.30366 20.675ZM54.0303 20.675C53.8523 20.6437 53.6689 20.676 53.5123 20.7663L32.4883 32.9036C32.1373 33.1063 31.8457 33.3978 31.643 33.7489C31.4403 34.1 31.3336 34.4982 31.3337 34.9036V59.1796C31.3337 59.7723 31.9757 60.1423 32.4883 59.8463L53.5123 47.7083C53.8634 47.5056 54.1549 47.2141 54.3576 46.863C54.5603 46.5119 54.667 46.1137 54.667 45.7083V21.4329C54.667 21.0589 54.3983 20.7396 54.0303 20.675Z" fill="#F0E2D1"/>
<path d="M35.7741 41.046L40.2274 40.234L35.7741 44.6094V47.216L42.5941 40.004V37.776L35.7741 38.4387V41.046ZM50.2268 42.1733V40.0447L43.1101 44.1533V46.2827L50.2268 42.1733Z" fill="#70594D"/>
<path d="M7.10742 32.7013L11.5608 37.0314L7.10742 36.2647V38.8714L13.9274 39.5347V37.3067L7.10742 30.0947V32.7013ZM21.5601 50.518V48.3887L14.4434 44.28V46.4087L21.5601 50.518Z" fill="#70594D"/>
<path d="M18.4681 17.9354L24.4448 16.244L21.5541 19.7173L23.8114 21.0207L27.7961 15.446L25.8661 14.3314L16.2101 16.6313L18.4681 17.9354ZM41.1241 14.3274L39.2801 13.2627L32.1634 17.3714L34.0068 18.436L41.1241 14.3274Z" fill="#70594D"/>
</svg>
